<svg id="Layer_1" data-name="Layer 1" xmlns="http://www.w3.org/2000/svg" viewBox="0 0 40 50"><defs><style>.cls-1{fill:#fff;}</style></defs><title>Artboard 1</title><path class="cls-1" d="M9.1,22.6h3c1.4,0,2.5.6,2.5,2.2s-.4,1.9-1.4,2.1h0c1.1.2,1.7.8,1.7,2.3s-1.1,2.6-2.9,2.6H9.1Zm2.7,3.9c.9,0,1.3-.6,1.3-1.5s-.6-1.3-1.5-1.3h-1v2.8Zm.3,4.3c.8,0,1.3-.6,1.3-1.7A1.4,1.4,0,0,0,12,27.5H10.6v3.3Z"/><path class="cls-1" d="M20.4,30.4c0,.3.1.5.3.5H21v.9l-.7.2c-.7,0-1.2-.3-1.2-1h0a2,2,0,0,1-1.8,1.1c-1.1,0-1.8-.6-1.8-2a1.9,1.9,0,0,1,1.6-2.2l1.1-.3c.5-.1.8-.3.8-.9s-.2-1-.9-1S17,26.3,17,27H15.7c0-1.5.6-2.3,2.4-2.3s2.3.5,2.3,1.7ZM19,28.2c-.3.3-1.1.4-1.5.6a1.3,1.3,0,0,0-.6,1.2c0,.6.3,1,.9,1s1.2-.6,1.2-1.6Z"/><path class="cls-1" d="M26.3,29.3c-.1,1.7-.7,2.8-2.4,2.8s-2.6-1.5-2.6-3.7.5-3.7,2.6-3.7a2.2,2.2,0,0,1,2.4,2.5H24.9c0-.6-.2-1.5-1-1.5s-1.2,1.1-1.2,2.7.2,2.6,1.2,2.6,1-.6,1-1.7Z"/><path class="cls-1" d="M27,22.6h1.4v5.2h0l2.2-2.9h1.6l-2.1,2.7,2.4,4.3H30.9l-1.7-3.2-.8,1v2.2H27Z"/><path class="cls-1" d="M6.7,36.3h.9v-2H9v2h1.2v1H9v4.2c0,.6.2.7.7.7h.5v1.1H9.1c-1,0-1.5-.3-1.5-1.7V37.3H6.7Z"/><path class="cls-1" d="M13,36.1c2,0,2.6,1.5,2.6,3.7S15,43.5,13,43.5s-2.6-1.5-2.6-3.7S11,36.1,13,36.1Zm0,6.3c1,0,1.2-.8,1.2-2.6S14,37.1,13,37.1s-1.2,1.1-1.2,2.7S12,42.4,13,42.4Z"/><path class="cls-1" d="M18.7,36.3h1v-2h1.4v2h1.1v1H21.1v4.2c0,.6.1.7.6.7h.5v1.1H21.1c-1,0-1.4-.3-1.4-1.7V37.3h-1Z"/><path class="cls-1" d="M25,36.1c2.1,0,2.6,1.5,2.6,3.7S27,43.5,25,43.5s-2.6-1.5-2.6-3.7S23,36.1,25,36.1Zm0,6.3c1.1,0,1.2-.8,1.2-2.6s-.1-2.7-1.2-2.7-1.2,1.1-1.2,2.7S24,42.4,25,42.4Z"/><path class="cls-1" d="M28.5,36.3h1.3v.8h0a1.7,1.7,0,0,1,1.6-1c1.6,0,2.3,1.4,2.3,3.8s-1.2,3.6-2.2,3.6a1.7,1.7,0,0,1-1.6-1h0v3.1H28.5ZM31,42.4c.8,0,1.2-.6,1.2-2.6S32,37.2,31,37.2s-1.2,1-1.2,2.5S30,42.4,31,42.4Z"/><polygon class="cls-1" points="10.7 11.1 10.7 17.5 20.3 10 29.6 17.3 29.6 10.9 20.1 4.2 10.7 11.1"/></svg>