<svg xmlns="http://www.w3.org/2000/svg" viewBox="0 0 283.5 141.7"><defs><style>.cls-1{fill:#65ac1e;}.cls-2{fill:#fff;}.cls-3{fill:none;}</style></defs><title>BASFo_wh100lg_3c_export_as</title><g id="BG_Colour" data-name="BG Colour"><rect class="cls-1" width="283.5" height="141.73"/></g><g id="BASFw_wh100lg_3c"><path class="cls-2" d="M35.4,35.5v38H73.5v-38ZM61.8,61.8H47.2V47.2H61.8Z" transform="translate(0 0)"/><rect class="cls-2" x="85.2" y="47.2" width="14.6" height="14.65"/><path class="cls-2" d="M111.6,35.5h21.2c7.8,0,11.4,5.1,11.4,9.9s-1.4,5.6-4.9,7.7c4.5,1.6,6.9,4.6,6.9,9.2s-4,11.2-13.4,11.2H111.6Zm11.6,29.4h7.7a3.6,3.6,0,0,0,3.9-3.7,3.2,3.2,0,0,0-3.5-3.1h-8.1Zm0-14.5h6.2c2.8,0,3.9-1.3,3.9-3.2a2.8,2.8,0,0,0-3.1-2.9h-7Z" transform="translate(0 0)"/><path class="cls-2" d="M158.3,35.5h12.2l14,38H171.9l-1.8-5.7H158.3l-1.6,5.7H144.2Zm5.6,11.2-3.2,12.7h6.9Z" transform="translate(0 0)"/><path class="cls-2" d="M204.1,46.8h11.7c0-6.5-4.9-12.5-16.4-12.5s-16.6,7-16.6,12.1c0,8.2,10.1,10.4,10.4,10.5l9.3,2.7c1.4.5,2.7,1.6,2.7,3s-2.7,3.3-4.9,3.3-6.1-.4-6.1-5.5H182.1c0,6.7,4.6,14.2,17.5,14.2s17.2-8.5,17.2-13a10.5,10.5,0,0,0-6.9-9.8c-2.9-1.1-7.7-2.2-10.1-2.9s-5.3-1.1-5.3-3.6,5.2-2.8,4.5-2.8C201.3,42.5,204.1,43.8,204.1,46.8Z" transform="translate(0 0)"/><polygon class="cls-2" points="218.8 35.4 248 35.4 248 45.5 230.5 45.5 230.5 52.2 246.1 52.2 246.1 61.8 230.4 61.8 230.4 73.5 218.8 73.5 218.8 35.4"/><polygon class="cls-2" points="50.6 103.7 50.6 103.6 47 89.9 44.7 89.9 41 103.7 40.8 103.7 40.8 103.6 37.6 89.9 35.5 89.9 39.7 106.3 41.9 106.3 45.7 92.4 45.8 92.4 45.9 92.4 49.6 106.3 51.8 106.3 56.2 89.9 54.1 89.9 50.8 103.7 50.6 103.7"/><path class="cls-2" d="M65.9,96.5a6.5,6.5,0,0,0-1.6-1.7,6.3,6.3,0,0,0-4.9-.2,5.9,5.9,0,0,0-1.8,1.3,4.9,4.9,0,0,0-1.1,2,6.6,6.6,0,0,0-.4,2.5,6.9,6.9,0,0,0,.4,2.5,5.7,5.7,0,0,0,1,1.9,4.6,4.6,0,0,0,1.8,1.3,6,6,0,0,0,2.4.5,6,6,0,0,0,3.4-1,5,5,0,0,0,1.7-3H65a3,3,0,0,1-3.2,2.4,4.7,4.7,0,0,1-1.7-.3l-1.2-.9a5.4,5.4,0,0,1-.7-1.3A7.7,7.7,0,0,1,58,101h9a8.6,8.6,0,0,0-.2-2.2,8.5,8.5,0,0,0-.9-2.2M58,99.3h0l.3-1.3a4.1,4.1,0,0,1,.7-1.1,2.6,2.6,0,0,1,1.1-.7,3.4,3.4,0,0,1,2.8,0,2.6,2.6,0,0,1,1.1.7,4.1,4.1,0,0,1,.7,1.1,3.1,3.1,0,0,1,.3,1.3H58Z" transform="translate(0 0)"/><path class="cls-2" d="M80.8,105a2.9,2.9,0,0,1-1.6-.4,2.7,2.7,0,0,1-1.1-1,3.5,3.5,0,0,1-.6-1.4,5,5,0,0,1-.2-1.7,4.7,4.7,0,0,1,.2-1.7,3.4,3.4,0,0,1,.6-1.5,3.8,3.8,0,0,1,1.1-1.1,3.6,3.6,0,0,1,1.9-.4,2.8,2.8,0,0,1,3,2.4H86a7.8,7.8,0,0,0-.5-1.8,4.3,4.3,0,0,0-1.1-1.2,4.8,4.8,0,0,0-1.6-.8l-1.9-.2a5.1,5.1,0,0,0-2.5.5A5.5,5.5,0,0,0,76.7,96a5.4,5.4,0,0,0-1,2,7.3,7.3,0,0,0-.4,2.5,6.6,6.6,0,0,0,.4,2.5,5.7,5.7,0,0,0,1,1.9,6.1,6.1,0,0,0,4.2,1.7,4.8,4.8,0,0,0,3.5-1.2,5.8,5.8,0,0,0,1.7-3.3H84.2a4.1,4.1,0,0,1-1,2.1,3.6,3.6,0,0,1-2.4.8" transform="translate(0 0)"/><path class="cls-2" d="M92.1,94.8A5,5,0,0,0,90.3,97h-.1V94.5H88.5v11.8h1.8V101a12.3,12.3,0,0,1,.2-2,8,8,0,0,1,.8-1.6,2.8,2.8,0,0,1,1.4-.9,5.3,5.3,0,0,1,1.9-.4V94.2h-.1a4.3,4.3,0,0,0-2.4.6" transform="translate(0 0)"/><path class="cls-2" d="M104.7,96.5a5.5,5.5,0,0,0-1.7-1.7,5,5,0,0,0-2.6-.6,5.4,5.4,0,0,0-2.2.4,5.9,5.9,0,0,0-1.8,1.3,4.9,4.9,0,0,0-1.1,2,6.6,6.6,0,0,0-.5,2.5,18.7,18.7,0,0,0,.4,2.5,5.9,5.9,0,0,0,1.1,1.9,4.6,4.6,0,0,0,1.8,1.3,6,6,0,0,0,2.4.5,6,6,0,0,0,3.4-1,5.5,5.5,0,0,0,1.7-3h-1.8a3.3,3.3,0,0,1-1.1,1.8,3.5,3.5,0,0,1-2.1.6,4.3,4.3,0,0,1-1.7-.3l-1.2-.9a3.3,3.3,0,0,1-.7-1.3,7.7,7.7,0,0,1-.2-1.5h9a18,18,0,0,0-.2-2.2,8.5,8.5,0,0,0-.9-2.2m-7.9,2.8h0a3.1,3.1,0,0,1,.3-1.3,4.1,4.1,0,0,1,.7-1.1,2.6,2.6,0,0,1,1.1-.7,3.4,3.4,0,0,1,2.8,0,2.6,2.6,0,0,1,1.1.7,4.1,4.1,0,0,1,.7,1.1,3.1,3.1,0,0,1,.3,1.3h-7Z" transform="translate(0 0)"/><path class="cls-2" d="M117.7,104.6V97.4a3.4,3.4,0,0,0-.4-1.6,2.1,2.1,0,0,0-1.1-1,3.4,3.4,0,0,0-1.4-.5,8.2,8.2,0,0,0-3.5.1,3.5,3.5,0,0,0-1.5.7,2.5,2.5,0,0,0-1.1,1.2,3.5,3.5,0,0,0-.5,1.8h1.9a1.8,1.8,0,0,1,.9-1.8,4.6,4.6,0,0,1,2.1-.5h1l.8.2a2.3,2.3,0,0,1,.7.7,2.7,2.7,0,0,1,.2,1.1,1.1,1.1,0,0,1-.3.8,1.9,1.9,0,0,1-.9.5l-1.3.2-1.6.3-1.4.3-1.3.6a2.4,2.4,0,0,0-.9,1.1,3.4,3.4,0,0,0-.4,1.6,2.4,2.4,0,0,0,.4,1.5,2,2,0,0,0,.8,1,2.7,2.7,0,0,0,1.2.6l1.5.2a5.6,5.6,0,0,0,2.3-.5,3.6,3.6,0,0,0,1.9-1.3v0a2,2,0,0,0,.5,1.4,1.6,1.6,0,0,0,1.1.4,2.6,2.6,0,0,0,1.4-.3v-1.4h-.6a.5.5,0,0,1-.6-.4m-1.9-2.4a2.9,2.9,0,0,1-.2.9,2,2,0,0,1-.7.9,4.1,4.1,0,0,1-1.1.7,4.7,4.7,0,0,1-1.7.3h-.9l-.8-.3-.5-.6a1.9,1.9,0,0,1-.2-.8,1.5,1.5,0,0,1,.4-1.2,1.8,1.8,0,0,1,.8-.7l1.3-.4,1.3-.2,1.3-.2a1.5,1.5,0,0,0,.9-.4h.1Z" transform="translate(0 0)"/><path class="cls-2" d="M137.1,96.5a6.9,6.9,0,0,0-1.7-1.7,5.3,5.3,0,0,0-2.6-.6,5.9,5.9,0,0,0-2.3.4,7,7,0,0,0-1.7,1.3,6.7,6.7,0,0,0-1.2,2,6.6,6.6,0,0,0-.4,2.5,10.1,10.1,0,0,0,.4,2.5,4.5,4.5,0,0,0,1.1,1.9,3.7,3.7,0,0,0,1.7,1.3,6.2,6.2,0,0,0,2.5.5,5.9,5.9,0,0,0,3.3-1,4.5,4.5,0,0,0,1.7-3h-1.8a2.8,2.8,0,0,1-1.1,1.8,3.2,3.2,0,0,1-2,.6,4.8,4.8,0,0,1-1.8-.3l-1.2-.9a5.4,5.4,0,0,1-.7-1.3,3.8,3.8,0,0,1-.1-1.5h8.9a5.7,5.7,0,0,0-.2-2.2,5.8,5.8,0,0,0-.8-2.2m-7.9,2.8h0a3.1,3.1,0,0,1,.3-1.3,4.1,4.1,0,0,1,.7-1.1,2.6,2.6,0,0,1,1.1-.7,3.4,3.4,0,0,1,2.8,0,2.6,2.6,0,0,1,1.1.7,4.1,4.1,0,0,1,.7,1.1,3.1,3.1,0,0,1,.3,1.3h-7Z" transform="translate(0 0)"/><path class="cls-2" d="M152,105a2.7,2.7,0,0,1-1.6-.4,2.2,2.2,0,0,1-1.1-1,6.1,6.1,0,0,1-.7-1.4,9.9,9.9,0,0,1-.2-1.7,8.8,8.8,0,0,1,.2-1.7,5.2,5.2,0,0,1,.6-1.5,3.2,3.2,0,0,1,1.2-1.1,3.4,3.4,0,0,1,1.8-.4,3.3,3.3,0,0,1,2.1.6,2.6,2.6,0,0,1,.9,1.8h2a4.8,4.8,0,0,0-.6-1.8,3.2,3.2,0,0,0-1.1-1.2,4.4,4.4,0,0,0-1.5-.8l-1.9-.2a4.9,4.9,0,0,0-2.5.5,4.5,4.5,0,0,0-1.7,1.3,5.6,5.6,0,0,0-1.1,2,10.7,10.7,0,0,0-.3,2.5,10.1,10.1,0,0,0,.3,2.5,5.9,5.9,0,0,0,1.1,1.9,4.3,4.3,0,0,0,1.7,1.2,6,6,0,0,0,2.4.5,4.8,4.8,0,0,0,5.2-4.5h-1.9a3,3,0,0,1-1,2.1,3.2,3.2,0,0,1-2.3.8" transform="translate(0 0)"/><path class="cls-2" d="M168.6,95.4a2.7,2.7,0,0,0-1.2-.9,6,6,0,0,0-2-.3h-1.1l-1.1.4a2.4,2.4,0,0,0-.9.6,3.5,3.5,0,0,0-.7.9h-.1V89.9h-1.8v16.4h1.8V99.6a7.7,7.7,0,0,1,.2-1.5,3.5,3.5,0,0,1,.7-1.2,2.8,2.8,0,0,1,1.1-.8,4.1,4.1,0,0,1,1.6-.3,2.5,2.5,0,0,1,1.9.7,2.4,2.4,0,0,1,.6,1.8v8h1.9V98.5a11,11,0,0,0-.2-1.8,5.4,5.4,0,0,0-.7-1.3" transform="translate(0 0)"/><path class="cls-2" d="M181.8,96.5a5.2,5.2,0,0,0-1.6-1.7,6.3,6.3,0,0,0-4.9-.2,5.9,5.9,0,0,0-1.8,1.3,9.5,9.5,0,0,0-1.1,2,6.6,6.6,0,0,0-.4,2.5,6.9,6.9,0,0,0,.4,2.5,5.7,5.7,0,0,0,1,1.9,4.6,4.6,0,0,0,1.8,1.3,6.2,6.2,0,0,0,2.5.5,5.9,5.9,0,0,0,3.3-1,5,5,0,0,0,1.7-3h-1.8a2.8,2.8,0,0,1-1.1,1.8,3.3,3.3,0,0,1-2.1.6,4.7,4.7,0,0,1-1.7-.3l-1.2-.9a5.4,5.4,0,0,1-.7-1.3,7.7,7.7,0,0,1-.2-1.5h9a8.6,8.6,0,0,0-.2-2.2,6,6,0,0,0-.9-2.2m-7.9,2.8h0l.3-1.3.7-1.1a2.6,2.6,0,0,1,1.1-.7,3.4,3.4,0,0,1,2.8,0,2.6,2.6,0,0,1,1.1.7,4.1,4.1,0,0,1,.7,1.1,3.1,3.1,0,0,1,.3,1.3h-7Z" transform="translate(0 0)"/><path class="cls-2" d="M200.9,95a3.1,3.1,0,0,0-1.3-.6,3.9,3.9,0,0,0-1.6-.2,5,5,0,0,0-2.1.5,4.6,4.6,0,0,0-1.6,1.5h-.1a2.5,2.5,0,0,0-1.2-1.6,4.9,4.9,0,0,0-5.9,1.6H187V94.5h-1.7v11.8h1.8V98.9a5.1,5.1,0,0,1,.2-.9,2.7,2.7,0,0,1,.6-1,4.5,4.5,0,0,1,1-.9,3.3,3.3,0,0,1,1.5-.3l1.1.2a1.3,1.3,0,0,1,.7.6,2,2,0,0,1,.4.8,4.1,4.1,0,0,1,.1,1.1v7.8h1.8V98.9a3.2,3.2,0,0,1,.9-2.3,3.4,3.4,0,0,1,2.3-.8l1.2.2a1.6,1.6,0,0,1,.8.6,1.9,1.9,0,0,1,.3.9,3.4,3.4,0,0,1,.1,1v7.8H202V97.6a4.1,4.1,0,0,0-.3-1.6,3.9,3.9,0,0,0-.8-1" transform="translate(0 0)"/><path class="cls-2" d="M207,92.2h-1.8V89.9H207Zm0,2.3h-1.8v11.8H207Z" transform="translate(0 0)"/><path class="cls-2" d="M218.1,105.8a5.7,5.7,0,0,0,1.1-1.1,3.5,3.5,0,0,0,.5-1.8,2.9,2.9,0,0,0-.4-1.4,3.9,3.9,0,0,0-.8-1l-1.3-.6-1.4-.4-1.4-.3-1.3-.4-.9-.5a1.2,1.2,0,0,1-.4-.9,1.1,1.1,0,0,1,.3-.8,1,1,0,0,1,.6-.5l.8-.2a6,6,0,0,1,1.9,0l.9.3a2.3,2.3,0,0,1,.7.7l.3.9h1.8a3.9,3.9,0,0,0-.4-1.7,2.3,2.3,0,0,0-1.1-1.1,3.4,3.4,0,0,0-1.5-.6,5.2,5.2,0,0,0-1.8-.2,4.4,4.4,0,0,0-1.6.2,3.5,3.5,0,0,0-1.4.6,3.1,3.1,0,0,0-.9,4.3,7.1,7.1,0,0,0,1.4,1l1.9.5,1.9.5a5.2,5.2,0,0,1,1.5.6,1.4,1.4,0,0,1,.6,1.2,1.7,1.7,0,0,1-.3,1l-.7.6-1,.2h-2.1l-1.1-.4a1.8,1.8,0,0,1-.7-.8,1.7,1.7,0,0,1-.3-1h-1.9a3.5,3.5,0,0,0,.5,1.8,2.5,2.5,0,0,0,1.1,1.2,5.2,5.2,0,0,0,1.5.7,11.5,11.5,0,0,0,3.7,0,4.9,4.9,0,0,0,1.7-.6" transform="translate(0 0)"/><path class="cls-2" d="M224.6,90.9h-1.8v3.6h-2v1.6h2v7.7a4.4,4.4,0,0,0,.2,1.3c.1.3.2.6.4.7l.9.4H227v-1.6h-1.6l-.4-.2c-.2-.1-.2-.2-.3-.4a4.3,4.3,0,0,1-.1-.5V96.1h2.5V94.5h-2.5Z" transform="translate(0 0)"/><path class="cls-2" d="M123.4,90.9h-1.8v3.6h-2v1.6h2v7.7a4.4,4.4,0,0,0,.2,1.3c.1.3.2.6.4.7l.9.4h2.7v-1.6h-1.6l-.5-.2a.5.5,0,0,1-.2-.4,4.3,4.3,0,0,1-.1-.5V96.1h2.5V94.5h-2.5Z" transform="translate(0 0)"/><path class="cls-2" d="M231.7,97.1h-.1V94.5h-1.7v11.8h1.8v-5.1a12.5,12.5,0,0,1,.2-2.1,5.3,5.3,0,0,1,.8-1.5,3,3,0,0,1,1.4-1,5.4,5.4,0,0,1,1.9-.3v-2a4.1,4.1,0,0,0-2.5.7,4.8,4.8,0,0,0-1.8,2.1" transform="translate(0 0)"/><path class="cls-2" d="M242.1,109.4a5.2,5.2,0,0,0,.7-1.5L248,94.5h-1.9l-3.4,9.8h-.2l-3.4-9.7H237l4.7,11.8h0l-.8,2a2.2,2.2,0,0,1-.7.9,1.5,1.5,0,0,1-1,.3h-.6l-.5-.2v1.7h1.3l1.1-.2a1.9,1.9,0,0,0,.9-.5,3.6,3.6,0,0,0,.7-1" transform="translate(0 0)"/></g><g id="Grid_Lines" data-name="Grid Lines"><line class="cls-3" x1="35.4" x2="35.4" y2="141.7"/><line class="cls-3" x1="70.9" x2="70.9" y2="141.7"/><line class="cls-3" x1="106.3" x2="106.3" y2="141.7"/><line class="cls-3" x1="141.7" x2="141.7" y2="141.7"/><line class="cls-3" x1="177.2" x2="177.2" y2="141.7"/><line class="cls-3" x1="212.6" x2="212.6" y2="141.7"/><line class="cls-3" x1="248" x2="248" y2="141.7"/><line class="cls-3" y1="70.9" x2="283.5" y2="70.9"/><line class="cls-3" y1="106.3" x2="283.5" y2="106.3"/><line class="cls-3" y1="35.4" x2="283.5" y2="35.4"/></g></svg>