<svg id="Layer_1" data-name="Layer 1" xmlns="http://www.w3.org/2000/svg" viewBox="0 0 1200 643"><defs><style>.cls-1{fill:#004926;}.cls-2{fill:#44260b;}</style></defs><title>Artboard 1</title><path d="M273.5,98.6l16.3-6.7.7,1.7-7.2,2.9,7.8,19-2,.8-7.7-19-7.2,3Z"/><path d="M305.2,86.5l2-.6,2.8,9.2,12.7-3.8-2.8-9.2,2-.7,6.4,21.4-2,.6-3.1-10.3-12.7,3.8,3.1,10.3-2,.6Z"/><path d="M340.1,77l15.1-2.9.4,1.7-13.1,2.6,1.6,7.9,12.2-2.4.3,1.8-12.2,2.4,1.7,8.6,13.2-2.6.4,1.8-15.3,3Z"/><path d="M416.7,69.1l10.2.3c3.7.1,6.7,2,6.6,6s-1.6,5.1-4.5,5.6h0c2.9.5,3.7,2.5,3.7,5.2s0,4.6.9,5.7h-2.3a8.3,8.3,0,0,1-.5-3.5c-.1-3.1-.3-6.5-4.3-6.5l-8.1-.2-.2,9.8H416Zm1.8,10.6,7.9.3c2.6.1,4.9-1.5,5-4.2s-1.5-4.5-4.7-4.6l-7.9-.2Z"/><path d="M451.4,71.1l2.1.2-2.4,22.2-2.1-.2Z"/><path d="M486.5,99.3,485,99l.5-4.1h-.1c-2.1,2.9-5.2,3.6-8.4,3-6.9-1.3-9.3-7.4-8.1-13.4s5.6-10.7,12.5-9.4c4.6.9,7.9,4.1,7.7,9l-2.1-.4c.3-2.5-1.8-6-5.9-6.8-5.8-1.1-9.2,3.2-10.2,8s.6,10.1,6.4,11.2,8.4-1.9,9.2-6.5L479,88.1l.4-1.8,9.2,1.8Z"/><path d="M508.5,81.8l2.1.7-2.9,9.2,12.7,3.9,2.8-9.3,2.1.7-6.6,21.3-2-.6,3.2-10.4-12.7-3.8L504,103.8l-2-.6Z"/><path d="M540.6,92.5l16.3,6.7-.7,1.7-7.2-3-7.8,18.9-2-.8,7.9-18.9-7.2-3Z"/><path d="M347.7,234.5h2.4l8.7,22.3h-2.3l-2.7-7H343.7l-2.7,7h-2.3ZM344.3,248h8.8l-4.3-11.4Z"/><path d="M365.7,234.5h17.6v1.8h-7.7v20.5h-2.2V236.3h-7.7Z"/><path d="M410.5,234.5h17.6v1.8h-7.7v20.5h-2.2V236.3h-7.7Z"/><path d="M439.6,234.5h2.1v9.7H455v-9.7h2.1v22.3H455V246H441.7v10.8h-2.1Z"/><path d="M471,234.5h15.4v1.8H473.1v8.1h12.4v1.8H473.1V255h13.4v1.8H471Z"/><path class="cls-1" d="M190.6,144.1,210,198.4h.2V144.1h14.6v79.3H206.6l-19.5-55.6h-.3v55.6H172.2V144.1Z"/><path class="cls-1" d="M250.9,144.1v55.3c0,7.9,1.9,13.8,9.4,13.8s9.3-5.9,9.3-13.8V144.1h16v55.3c0,20.2-12.3,25.6-25.3,25.6s-25.4-4.4-25.4-25.6V144.1Z"/><path class="cls-1" d="M342.2,144.1v13.1H324.8v66.2h-16V157.2H291.5V144.1Z"/><path class="cls-1" d="M349.1,144.1h29.5c13.1,0,21.1,6.9,21.1,20.4,0,10.6-4.2,17.7-13.2,19.6v.2c10.9,1.4,12.6,7.4,12.8,24.2.1,8.4.5,12.7,3.5,14.2v.7H385.5c-1.6-2.2-1.9-5.2-2-8.3l-.4-15.2c-.3-6.3-3-10-9.5-10h-8.5v33.5h-16Zm16,34.6h6.6c7.7,0,12-3.3,12-11.9s-3.9-11-11.1-11h-7.5Z"/><path class="cls-1" d="M411.6,223.4V144.1h16v79.3Z"/><path class="cls-1" d="M483.8,144.1v13.1H455.5v18.7h26.7V189H455.5v21.3H485v13.1H439.5V144.1Z"/><path class="cls-1" d="M511.4,144.1l19.3,54.3h.2V144.1h14.7v79.3H527.4l-19.6-55.6h-.2v55.6H492.9V144.1Z"/><path class="cls-1" d="M603.2,144.1v13.1H585.8v66.2h-16V157.2H552.5V144.1Z"/><path class="cls-1" d="M622.9,198.6V201c0,7.4,2.2,12.2,10.6,12.2,4.9,0,9.6-3.1,9.6-9.8s-3.7-9.9-14.3-13.5c-14.2-4.9-20.7-10.8-20.7-24.1,0-15.4,9.4-23.3,24.5-23.3s24.6,6.1,24.6,21.4v2.2H641.8c0-7.5-2.5-11.8-8.6-11.8s-9.1,4.5-9.1,9.2,1.4,7.9,8.2,10.8l12.3,5.3c12,5.3,15.1,11.4,15.1,21,0,16.8-10.2,24.4-27.5,24.4s-25.3-8.5-25.3-23.1v-3.3Z"/><path class="cls-2" d="M241.1,268.5h20.8c9.2,0,14.8,4.9,14.8,14.4,0,7.4-3,12.4-9.3,13.7v.2c7.7,1,8.8,5.2,9,17,.1,5.9.4,8.9,2.5,10v.5H266.7c-1.1-1.6-1.3-3.7-1.4-5.9l-.3-10.7c-.2-4.4-2.1-7-6.6-7h-6.1v23.6H241.1Zm11.2,24.4H257c5.4,0,8.5-2.4,8.5-8.4s-2.8-7.7-7.8-7.7h-5.4Z"/><path class="cls-2" d="M285.1,324.3V268.5h11.2v55.8Z"/><path class="cls-2" d="M329.4,285.1c0-4.2-1.9-9.4-6.4-9.4s-7.6,5.6-7.6,19.5,1.2,21.9,7.7,21.9c2.6,0,6.9-2.9,6.9-8.9v-5.7h-7.4v-8.3h18.2v30.1h-8.3v-5.2h-.1c-2.7,4.4-6.5,6.3-11.7,6.3-13.8,0-16.6-10.3-16.6-29.6s4.4-28.4,18.8-28.4c12.3,0,17.3,6.3,17.3,17.7Z"/><path class="cls-2" d="M348.1,268.5h11.2v21.3h13.1V268.5h11.3v55.8H372.4V299.5H359.3v24.8H348.1Z"/><path class="cls-2" d="M424.1,268.5v9.2H412v46.6H400.7V277.7H388.5v-9.2Z"/><path class="cls-2" d="M480.4,268.5v9.2H468.2v46.6H456.9V277.7H444.8v-9.2Z"/><path class="cls-2" d="M485.7,324.3V268.5H497v55.8Z"/><path class="cls-2" d="M505.6,268.5h16.7l8,39.4h.1l8.1-39.4h16.6v55.8H544.8V279.8h-.2l-9.9,44.5H526l-10-44.5h-.1v44.5H505.6Z"/><path class="cls-2" d="M594.3,268.5v9.2H574.4v13.1h18.7v9.3H574.4v15h20.7v9.2h-32V268.5Z"/><circle cx="341.6" cy="341.3" r="2.6"/><circle cx="356.4" cy="341.3" r="2.6"/><circle cx="371.2" cy="341.3" r="2.6"/><circle cx="386.1" cy="341.3" r="2.6"/><circle cx="400.9" cy="341.3" r="2.6"/><circle cx="415.8" cy="341.3" r="2.6"/><circle cx="430.6" cy="341.3" r="2.6"/><circle cx="445.4" cy="341.3" r="2.6"/><circle cx="460.3" cy="341.3" r="2.6"/><circle cx="475.1" cy="341.3" r="2.6"/><circle cx="489.9" cy="341.3" r="2.6"/><circle cx="341.6" cy="126.3" r="2.6"/><circle cx="356.4" cy="126.3" r="2.6"/><circle cx="371.2" cy="126.3" r="2.6"/><circle cx="386.1" cy="126.3" r="2.6"/><circle cx="400.9" cy="126.3" r="2.6"/><circle cx="415.8" cy="126.3" r="2.6"/><circle cx="430.6" cy="126.3" r="2.6"/><circle cx="445.4" cy="126.3" r="2.6"/><circle cx="460.3" cy="126.3" r="2.6"/><circle cx="475.1" cy="126.3" r="2.6"/><circle cx="489.9" cy="126.3" r="2.6"/><path d="M93.3,230.4l22.4-44.9v26.8l-15,29.5,15,29.6v26.8L93.3,253.3Z"/><path d="M119.8,230.4l22.4-44.9v26.8l-15,29.5,15,29.6v26.8l-22.4-44.9Z"/><path d="M737.2,253.3l-22.3,44.9V271.4l14.9-29.6-14.9-29.5V185.5l22.3,44.9Z"/><path d="M710.7,253.3l-22.3,44.9V271.4l14.9-29.6-14.9-29.5V185.5l22.3,44.9Z"/></svg>